<mxfile host="app.diagrams.net" modified="2021-06-19T09:53:58.066Z" agent="5.0 (Windows NT 10.0; Win64; x64) AppleWebKit/537.36 (KHTML, like Gecko) Chrome/91.0.4472.106 Safari/537.36" etag="RcUITq16vx20NrFXX32B" version="14.7.9" type="github">
  <diagram id="2JgCngSiGe960W6a-yv6" name="Page-1">
    <mxGraphModel dx="539" dy="261" grid="1" gridSize="10" guides="1" tooltips="1" connect="1" arrows="1" fold="1" page="1" pageScale="1" pageWidth="850" pageHeight="1100" math="0" shadow="0">
      <root>
        <mxCell id="0" />
        <mxCell id="1" parent="0" />
        <mxCell id="LwNcwx3EJBqjU3vXdGRu-1" value="&lt;font face=&quot;B Zar&quot; style=&quot;font-size: 13px&quot;&gt;&lt;b&gt;کاربر&lt;/b&gt;&lt;/font&gt;" style="shape=umlLifeline;participant=umlActor;perimeter=lifelinePerimeter;whiteSpace=wrap;html=1;container=1;collapsible=0;recursiveResize=0;verticalAlign=top;spacingTop=36;labelBackgroundColor=#ffffff;outlineConnect=0;size=40;" vertex="1" parent="1">
          <mxGeometry x="20" y="20" width="20" height="350" as="geometry" />
        </mxCell>
        <mxCell id="LwNcwx3EJBqjU3vXdGRu-2" value="&lt;font style=&quot;font-size: 13px;&quot;&gt;&lt;br style=&quot;font-size: 13px;&quot;&gt;صفحه نمایش&lt;br style=&quot;font-size: 13px;&quot;&gt;&lt;/font&gt;&lt;br style=&quot;font-size: 13px;&quot;&gt;" style="shape=umlLifeline;perimeter=lifelinePerimeter;whiteSpace=wrap;html=1;container=1;collapsible=0;recursiveResize=0;outlineConnect=0;fontSize=13;fontFamily=B Zar;fontStyle=1;fillColor=#BFBFBF;" vertex="1" parent="1">
          <mxGeometry x="280" y="20" width="100" height="340" as="geometry" />
        </mxCell>
        <mxCell id="LwNcwx3EJBqjU3vXdGRu-3" value="" style="html=1;points=[];perimeter=orthogonalPerimeter;fillColor=#5EBEA0;" vertex="1" parent="LwNcwx3EJBqjU3vXdGRu-2">
          <mxGeometry x="45" y="80" width="10" height="80" as="geometry" />
        </mxCell>
        <mxCell id="LwNcwx3EJBqjU3vXdGRu-4" value="" style="html=1;points=[];perimeter=orthogonalPerimeter;fillColor=#28408E;" vertex="1" parent="LwNcwx3EJBqjU3vXdGRu-2">
          <mxGeometry x="48" y="140" width="10" height="10" as="geometry" />
        </mxCell>
        <mxCell id="LwNcwx3EJBqjU3vXdGRu-5" value="&lt;font style=&quot;font-size: 13px&quot;&gt;درخواست مشاهده ی درباره ما&lt;/font&gt;" style="html=1;verticalAlign=bottom;startArrow=oval;endArrow=block;startSize=8;fontSize=13;fontFamily=B Zar;strokeColor=#28408E;" edge="1" parent="1" target="LwNcwx3EJBqjU3vXdGRu-3">
          <mxGeometry relative="1" as="geometry">
            <mxPoint x="43" y="110" as="sourcePoint" />
            <Array as="points">
              <mxPoint x="90" y="110" />
            </Array>
          </mxGeometry>
        </mxCell>
        <mxCell id="LwNcwx3EJBqjU3vXdGRu-6" value="&lt;font style=&quot;font-size: 13px&quot;&gt;صفحه درباره ما&lt;br style=&quot;font-size: 13px&quot;&gt;&amp;nbsp;باز می شود&lt;/font&gt;" style="edgeStyle=orthogonalEdgeStyle;html=1;align=left;spacingLeft=2;endArrow=block;rounded=0;entryX=1;entryY=0;fontFamily=B Zar;fontSize=13;strokeColor=#28408E;" edge="1" parent="1" target="LwNcwx3EJBqjU3vXdGRu-4">
          <mxGeometry relative="1" as="geometry">
            <mxPoint x="332.5" y="120" as="sourcePoint" />
            <Array as="points">
              <mxPoint x="357.5" y="120" />
            </Array>
          </mxGeometry>
        </mxCell>
        <mxCell id="LwNcwx3EJBqjU3vXdGRu-7" value="" style="html=1;points=[];perimeter=orthogonalPerimeter;fillColor=#5EBEA0;" vertex="1" parent="1">
          <mxGeometry x="30" y="100" width="10" height="140" as="geometry" />
        </mxCell>
      </root>
    </mxGraphModel>
  </diagram>
</mxfile>
